HIERARCHY
ROOT Hips
{
  OFFSET 51.775 54.0652 -4.84951
  CHANNELS 6 Xposition Yposition Zposition Zrotation Xrotation Yrotation
  JOINT spine
  {
    OFFSET 0 7.96568 0.458067
    CHANNELS 3 Zrotation Xrotation Yrotation
    JOINT spine1
    {
      OFFSET 0 10.2431 0
      CHANNELS 3 Zrotation Xrotation Yrotation
      JOINT spine2
      {
        OFFSET 0 9.81475 0
        CHANNELS 3 Zrotation Xrotation Yrotation
        JOINT Neck
        {
          OFFSET 0 25.1986 1.20138
          CHANNELS 3 Zrotation Xrotation Yrotation
          JOINT Head
          {
            OFFSET 0 7.61315 0
            CHANNELS 3 Zrotation Xrotation Yrotation
            End Site
            {
              OFFSET 0 18.4281 -6.07733
            }
          }
        }
        JOINT RightShoulder
        {
          OFFSET -4.1327 10.5992 -0.575451
          CHANNELS 3 Zrotation Xrotation Yrotation
          JOINT RightArm
          {
            OFFSET 0 13.9018 0
            CHANNELS 3 Zrotation Xrotation Yrotation
            JOINT RightArmRoll
            {
              OFFSET 0 7.01789 0
              CHANNELS 3 Zrotation Xrotation Yrotation
              JOINT RightForeArm
              {
                OFFSET 0 20.4406 0
                CHANNELS 3 Zrotation Xrotation Yrotation
                JOINT RightForeArmRoll
                {
                  OFFSET 0 7.87516 0
                  CHANNELS 3 Zrotation Xrotation Yrotation
                  JOINT RightHand
                  {
                    OFFSET 0 15.8037 0
                    CHANNELS 3 Zrotation Xrotation Yrotation
                    End Site
                    {
                      OFFSET 0 0 0
                    }
                  }
                }
              }
            }
          }
        }
        JOINT LeftShoulder
        {
          OFFSET 4.1327 10.5992 -0.575451
          CHANNELS 3 Zrotation Xrotation Yrotation
          JOINT LeftArm
          {
            OFFSET 0 13.9018 0
            CHANNELS 3 Zrotation Xrotation Yrotation
            JOINT LeftArmRoll
            {
              OFFSET 0 7.01789 0
              CHANNELS 3 Zrotation Xrotation Yrotation
              JOINT LeftForeArm
              {
                OFFSET 0 20.4406 0
                CHANNELS 3 Zrotation Xrotation Yrotation
                JOINT LeftForeArmRoll
                {
                  OFFSET 0 7.87516 0
                  CHANNELS 3 Zrotation Xrotation Yrotation
                  JOINT LeftHand
                  {
                    OFFSET 0 15.8037 0
                    CHANNELS 3 Zrotation Xrotation Yrotation
                    End Site
                    {
                      OFFSET 0 0 0
                    }
                  }
                }
              }
            }
          }
        }
      }
    }
  }
  JOINT RightUpLeg
  {
    OFFSET -7.06048 -1.2947 -1.0861
    CHANNELS 3 Zrotation Xrotation Yrotation
    JOINT RightUpLegRoll
    {
      OFFSET 0 18.5308 0
      CHANNELS 3 Zrotation Xrotation Yrotation
      JOINT RightLeg
      {
        OFFSET 0 -22.9476 0
        CHANNELS 3 Zrotation Xrotation Yrotation
        JOINT RightLegRoll
        {
          OFFSET 0 23.0226 0
          CHANNELS 3 Zrotation Xrotation Yrotation
          JOINT RightFoot
          {
            OFFSET 0 19.1625 0
            CHANNELS 3 Zrotation Xrotation Yrotation
            JOINT RightToeBase
            {
              OFFSET 0 16.0188 0
              CHANNELS 3 Zrotation Xrotation Yrotation
              End Site
              {
                OFFSET 0.00678979 7.75783 -0.894206
              }
            }
          }
        }
      }
    }
  }
  JOINT LeftUpLeg
  {
    OFFSET 7.06048 -1.2947 -1.0861
    CHANNELS 3 Zrotation Xrotation Yrotation
    JOINT LeftUpLegRoll
    {
      OFFSET 0 18.5309 0
      CHANNELS 3 Zrotation Xrotation Yrotation
      JOINT LeftLeg
      {
        OFFSET 0 22.9475 0
        CHANNELS 3 Zrotation Xrotation Yrotation
        JOINT LeftLegRoll
        {
          OFFSET 0 23.2355 0
          CHANNELS 3 Zrotation Xrotation Yrotation
          JOINT LeftFoot
          {
            OFFSET 0 18.9496 0
            CHANNELS 3 Zrotation Xrotation Yrotation
            JOINT LeftToeBase
            {
              OFFSET 0 16.0188 0
              CHANNELS 3 Zrotation Xrotation Yrotation
              End Site
              {
                OFFSET -0.0304289 7.75781 -0.894207
              }
            }
          }
        }
      }
    }
  }
}
MOTION
Frames: 10
Frame Time: 0.00208333
52.8306 96.9663 36.2278 0.552505 -2.43779 4.90058 -0.149641 -1.86132 -0.0566778 -0.300333 0.266414 -0.0906772 -0.299537 1.91147 -0.0857281 -5.16841 4.43925 -0.77961 8.44948 23.5445 -2.77654 71.7079 -4.23906 -3.51887 105.056 24.008 0.946691 -7.85199e-015 0 -3.57812e-015 10.6487 9.98097 -1.7097 -4.12739e-006 -4.98669e-006 -3 8.0289 -4.95141 0.697674 -63.1154 -6.305 4.11275 -110.913 21.1779 10.9331 -3.18055e-015 -3.18055e-015 -0 -16.2435 15.4195 2.78631 9.49545e-006 3.47605e-007 3 -8.02899 -4.9514 -0.697688 176.282 -1.4593 3.23029 180 7.01518e-015 178.802 178.487 5.4702 179.643 3.27169e-006 -1.13522e-006 0.0367997 -18.2658 67.2675 18.9293 8.12757 25.2332 -3.48393 -175.354 2.44523 -0.752806 4.5067e-006 -1.99009e-005 -1.1041 -1.48577 -10.2651 0.163807 1.72445e-006 -4.9613e-006 -0.239476 20.7907 70.255 -21.6196 -8.12647 25.2332 3.48346 
52.8307 96.9684 36.2314 0.551155 -2.43832 4.89551 -0.148897 -1.85991 -0.0569919 -0.299156 0.270225 -0.09209 -0.298339 1.91528 -0.0871711 -5.16329 4.42947 -0.777815 8.44739 23.5509 -2.7735 71.7042 -4.23576 -3.51707 105.058 24.0094 0.975497 1.0138e-014 6.36111e-015 4.96962e-015 10.6276 9.94531 -1.70473 -4.12739e-006 -4.98669e-006 -3 8.0289 -4.95141 0.697674 -63.1046 -6.31702 4.11912 -110.92 21.1642 10.9109 -1.05356e-014 3.18055e-015 -3.18055e-015 -16.2303 15.3744 2.77637 9.49545e-006 3.47605e-007 3 -8.02899 -4.9514 -0.697688 176.283 -1.45531 3.23015 180 7.01518e-015 178.802 178.485 5.46971 179.643 3.27169e-006 -1.13522e-006 0.0367997 -18.2661 67.2678 18.9296 8.12757 25.2332 -3.48393 -175.349 2.44992 -0.761234 4.5067e-006 -1.99009e-005 -1.10414 -1.49298 -10.2693 0.162392 1.72445e-006 -4.9613e-006 -0.239213 20.7897 70.2541 -21.6185 -8.12647 25.2332 3.48346 
52.8273 96.9643 36.2198 0.550001 -2.43915 4.89015 -0.148147 -1.85851 -0.0573252 -0.297957 0.274063 -0.0935719 -0.297117 1.91912 -0.0886844 -5.1586 4.41976 -0.775648 8.44539 23.5573 -2.77018 71.6998 -4.23209 -3.51505 105.061 24.0108 1.00439 2.5842e-015 -3.18055e-015 1.19271e-015 10.6059 9.90971 -1.69975 -4.12739e-006 -4.98669e-006 -3 8.0289 -4.95141 0.697674 -63.0939 -6.32938 4.12571 -110.927 21.1502 10.8896 -9.93923e-017 0 1.98785e-015 -16.2184 15.3306 2.76668 9.49545e-006 3.47605e-007 3 -8.02899 -4.9514 -0.697688 176.284 -1.45168 3.23025 180 7.01518e-015 178.802 178.483 5.46915 179.644 3.27169e-006 -1.13522e-006 0.0367997 -18.2663 67.2681 18.9298 8.12757 25.2332 -3.48393 -175.343 2.45391 -0.769958 4.5067e-006 -1.99009e-005 -1.10418 -1.50056 -10.2731 0.160914 1.72445e-006 -4.9613e-006 -0.238918 20.7885 70.253 -21.6173 -8.12647 25.2332 3.48346 
52.8176 96.9616 36.2144 0.548983 -2.44019 4.88458 -0.147394 -1.85712 -0.0576719 -0.296742 0.277919 -0.0951023 -0.29588 1.92297 -0.0902469 -5.1542 4.4101 -0.773219 8.44346 23.5638 -2.76665 71.6949 -4.22817 -3.51287 105.065 24.0122 1.03334 3.42904e-014 -6.36111e-015 1.5704e-014 10.5837 9.87414 -1.69477 -4.12739e-006 -4.98669e-006 -3 8.0289 -4.95141 0.697674 -63.0835 -6.34197 4.13243 -110.934 21.136 10.869 3.8763e-015 0 1.98785e-015 -16.2072 15.2876 2.75717 9.49545e-006 3.47605e-007 3 -8.02899 -4.9514 -0.697688 176.284 -1.44831 3.23054 180 7.01518e-015 178.802 178.48 5.46855 179.644 3.27169e-006 -1.13522e-006 0.0367997 -18.2666 67.2685 18.9301 8.12757 25.2332 -3.48393 -175.337 2.45742 -0.778892 4.5067e-006 -1.99009e-005 -1.10424 -1.50841 -10.2766 0.159391 1.72445e-006 -4.9613e-006 -0.238601 20.7873 70.2518 -21.6159 -8.12647 25.2332 3.48346 
52.8285 96.9634 36.2125 0.548043 -2.44135 4.87889 -0.146639 -1.85572 -0.0580263 -0.295517 0.281785 -0.0966602 -0.294633 1.92684 -0.0918375 -5.14997 4.40048 -0.770641 8.44157 23.5702 -2.76301 71.6897 -4.2241 -3.51061 105.069 24.0136 1.06233 9.24349e-015 3.18055e-015 4.77083e-015 10.5614 9.8386 -1.68978 -4.12739e-006 -4.98669e-006 -3 8.0289 -4.95141 0.697674 -63.0732 -6.3547 4.13924 -110.94 21.1217 10.8487 -1.03368e-014 -6.36111e-015 -2.38542e-015 -16.1965 15.245 2.74777 9.49545e-006 3.47605e-007 3 -8.02899 -4.9514 -0.697688 176.284 -1.44509 3.23093 180 7.01518e-015 178.802 178.478 5.46793 179.644 3.27169e-006 -1.13522e-006 0.0367997 -18.2669 67.2688 18.9304 8.12757 25.2332 -3.48393 -175.332 2.46064 -0.787944 4.5067e-006 -1.99009e-005 -1.10431 -1.5164 -10.2799 0.157843 1.72445e-006 -4.9613e-006 -0.238272 20.7859 70.2505 -21.6145 -8.12647 25.2332 3.48346 
52.8295 96.965 36.2068 0.547123 -2.44254 4.87317 -0.145883 -1.85433 -0.0583826 -0.294291 0.285655 -0.0982251 -0.293384 1.93071 -0.0934352 -5.14577 4.39086 -0.768025 8.43968 23.5767 -2.75933 71.6844 -4.21999 -3.50832 105.074 24.015 1.09132 5.46658e-015 -6.36111e-015 2.38542e-015 10.5389 9.80307 -1.6848 -4.12739e-006 -4.98669e-006 -3 8.0289 -4.95141 0.697674 -63.0629 -6.36746 4.14607 -110.947 21.1073 10.8286 -9.64106e-015 0 -3.18055e-015 -16.1859 15.2026 2.7384 9.49545e-006 3.47605e-007 3 -8.02899 -4.9514 -0.697688 176.285 -1.4419 3.23134 180 7.01518e-015 178.802 178.475 5.46732 179.644 3.27169e-006 -1.13522e-006 0.0367997 -18.2672 67.2692 18.9308 8.12757 25.2332 -3.48393 -175.326 2.46379 -0.797025 4.5067e-006 -1.99009e-005 -1.10437 -1.52443 -10.2832 0.156289 1.72445e-006 -4.9613e-006 -0.23794 20.7846 70.2493 -21.6131 -8.12647 25.2332 3.48346 
52.8297 96.9663 36.2029 0.546163 -2.44367 4.86751 -0.145128 -1.85293 -0.058735 -0.293069 0.289518 -0.0997762 -0.292139 1.93458 -0.0950188 -5.1415 4.38123 -0.765484 8.43777 23.5831 -2.75572 71.6793 -4.21595 -3.50608 105.078 24.0164 1.1203 5.1684e-015 0 2.5842e-015 10.5166 9.76752 -1.67982 -4.12739e-006 -4.98669e-006 -3 8.0289 -4.95141 0.697674 -63.0525 -6.38016 4.15286 -110.953 21.093 10.8083 -2.98177e-014 6.36111e-015 -9.93923e-015 -16.1751 15.1599 2.72899 9.49545e-006 3.47605e-007 3 -8.02899 -4.9514 -0.697688 176.285 -1.43865 3.2317 180 7.01518e-015 178.802 178.473 5.46669 179.644 3.27169e-006 -1.13522e-006 0.0367997 -18.2674 67.2696 18.9311 8.12757 25.2332 -3.48393 -175.32 2.46708 -0.806048 4.5067e-006 -1.99009e-005 -1.10444 -1.53238 -10.2866 0.154748 1.72445e-006 -4.9613e-006 -0.237613 20.7833 70.248 -21.6117 -8.12647 25.2332 3.48346 
52.8396 96.9603 36.1873 0.545105 -2.44465 4.862 -0.144375 -1.85154 -0.0590779 -0.291857 0.293369 -0.101293 -0.290905 1.93843 -0.0965672 -5.13701 4.37156 -0.763131 8.43582 23.5895 -2.75225 71.6745 -4.2121 -3.50394 105.082 24.0177 1.14924 1.09332e-014 0 4.96962e-015 10.4946 9.73194 -1.67485 -4.12739e-006 -4.98669e-006 -3 8.0289 -4.95141 0.697674 -63.0421 -6.39268 4.15955 -110.96 21.0789 10.7875 -1.0138e-014 -3.18055e-015 -2.38542e-015 -16.1637 15.1167 2.71945 9.49545e-006 3.47605e-007 3 -8.02899 -4.9514 -0.697688 176.286 -1.4352 3.23194 180 7.01518e-015 178.802 178.471 5.46611 179.645 3.27169e-006 -1.13522e-006 0.0367997 -18.2677 67.2699 18.9314 8.12757 25.2332 -3.48393 -175.314 2.47072 -0.814921 4.5067e-006 -1.99009e-005 -1.10449 -1.54015 -10.2902 0.153238 1.72445e-006 -4.9613e-006 -0.237303 20.782 70.2468 -21.6104 -8.12647 25.2332 3.48346 
52.8363 96.9652 36.1855 0.543891 -2.44539 4.85672 -0.143627 -1.85014 -0.0594054 -0.290663 0.297199 -0.102754 -0.289689 1.94226 -0.0980595 -5.13219 4.36182 -0.761076 8.43379 23.5959 -2.74901 71.6704 -4.20854 -3.50199 105.084 24.0191 1.17811 -7.95139e-016 -6.36111e-015 -5.96354e-016 10.4731 9.69632 -1.66988 -4.12739e-006 -4.98669e-006 -3 8.0289 -4.95141 0.697674 -63.0313 -6.40494 4.16608 -110.967 21.0649 10.7659 -4.67144e-015 0 -1.19271e-015 -16.1515 15.0725 2.70972 9.49545e-006 3.47605e-007 3 -8.02899 -4.9514 -0.697688 176.286 -1.43147 3.23197 180 7.01518e-015 178.802 178.468 5.46558 179.645 3.27169e-006 -1.13522e-006 0.0367997 -18.268 67.2702 18.9316 8.12757 25.2332 -3.48393 -175.309 2.47492 -0.823558 4.5067e-006 -1.99009e-005 -1.10453 -1.54762 -10.2941 0.151778 1.72445e-006 -4.9613e-006 -0.237018 20.7809 70.2458 -21.6092 -8.12647 25.2332 3.48346 
52.8296 96.9667 36.1832 0.542462 -2.4458 4.85178 -0.142885 -1.84873 -0.0597119 -0.289493 0.301 -0.104139 -0.288498 1.94606 -0.0994744 -5.1269 4.35201 -0.759431 8.43165 23.6023 -2.74608 71.667 -4.20538 -3.50027 105.085 24.0205 1.20689 1.02374e-014 0 4.96962e-015 10.4523 9.66064 -1.66493 -4.12739e-006 -4.98669e-006 -3 8.0289 -4.95141 0.697674 -63.0203 -6.41682 4.17237 -110.975 21.0513 10.7434 4.96962e-016 6.36111e-015 1.19271e-015 -16.1381 15.027 2.69972 9.49545e-006 3.47605e-007 3 -8.02899 -4.9514 -0.697688 176.287 -1.42733 3.23172 180 7.01518e-015 178.802 178.466 5.46509 179.645 3.27169e-006 -1.13522e-006 0.0367997 -18.2682 67.2705 18.9319 8.12757 25.2332 -3.48393 -175.303 2.47989 -0.831867 4.5067e-006 -1.99009e-005 -1.10456 -1.55469 -10.2984 0.150388 1.72445e-006 -4.9613e-006 -0.236767 20.78 70.2449 -21.6082 -8.12647 25.2332 3.48346 
